<?xml version="1.0" standalone="no"?>
<!DOCTYPE svg PUBLIC "-//W3C//DTD SVG 20010904//EN"
 "http://www.w3.org/TR/2001/REC-SVG-20010904/DTD/svg10.dtd">
<svg version="1.0" xmlns="http://www.w3.org/2000/svg"
 width="512.000000pt" height="512.000000pt" viewBox="0 0 512.000000 512.000000"
 preserveAspectRatio="xMidYMid meet">

<g transform="translate(0.000000,512.000000) scale(0.100000,-0.100000)"
fill="#000000" stroke="none">
<path d="M1048 5100 c-59 -32 -78 -73 -78 -171 0 -46 52 -1132 114 -2414 123
-2525 112 -2372 174 -2439 15 -16 50 -39 77 -52 l50 -24 1175 0 1175 0 50 24
c28 13 62 36 77 52 62 67 51 -86 174 2439 62 1282 114 2368 114 2414 0 99 -19
140 -81 171 -37 20 -65 20 -1511 20 -1435 -1 -1474 -1 -1510 -20z m2952 -175
c0 -61 -31 -679 -34 -683 -2 -1 -38 -7 -82 -12 -99 -13 -164 -31 -279 -81
-114 -48 -211 -69 -325 -69 -115 0 -208 20 -327 71 -155 66 -227 81 -388 82
-163 0 -221 -11 -389 -78 -147 -58 -221 -75 -333 -75 -117 0 -210 20 -326 69
-117 50 -182 68 -281 81 -44 5 -80 11 -82 12 -3 4 -34 637 -34 691 l0 37 1440
0 1440 0 0 -45z m-2655 -873 c33 -11 99 -36 146 -56 131 -54 217 -69 378 -63
151 5 196 15 364 81 150 60 191 68 327 68 136 0 177 -8 327 -68 168 -66 213
-76 363 -81 162 -6 265 13 411 75 124 52 153 61 232 70 64 8 67 7 67 -12 0
-12 -9 -196 -20 -411 -11 -214 -20 -411 -20 -437 0 -35 -4 -48 -14 -48 -23 0
-142 -65 -189 -104 -24 -20 -64 -63 -87 -95 l-43 -59 -37 47 c-127 157 -275
232 -460 234 -199 1 -372 -82 -481 -232 -24 -33 -46 -60 -49 -60 -3 0 -25 27
-49 60 -74 103 -193 182 -324 216 -89 23 -234 21 -317 -6 -116 -36 -235 -123
-310 -223 l-27 -37 -42 60 c-52 74 -125 132 -218 176 l-73 34 0 47 c0 26 -9
223 -20 437 -11 215 -20 397 -20 406 0 13 9 14 63 8 34 -4 89 -17 122 -27z
m868 -1043 c88 -36 178 -122 224 -217 l38 -76 3 -1123 2 -1123 -400 0 -400 0
0 28 c0 46 -20 101 -40 112 -64 34 -120 -9 -120 -91 l0 -49 -90 0 c-64 0 -92
4 -94 12 -3 7 -29 548 -60 1203 -31 655 -59 1221 -62 1259 l-6 69 42 -24 c58
-33 127 -109 156 -174 16 -34 29 -88 35 -142 5 -49 23 -477 40 -953 24 -705
33 -869 45 -887 29 -46 103 -39 126 12 8 18 3 238 -21 912 -27 765 -29 896
-18 943 65 267 346 412 600 309z m1010 8 c195 -71 296 -232 297 -474 0 -98 4
-109 42 -129 24 -12 33 -13 55 -2 41 19 53 53 53 148 0 111 14 189 44 255 29
65 98 141 156 174 l42 23 -7 -88 c-8 -123 -115 -2350 -115 -2408 l0 -46 -95 0
-95 0 1 108 c0 59 13 440 27 847 31 835 33 797 -41 803 -47 4 -74 -17 -81 -62
-3 -17 -17 -382 -31 -811 -14 -429 -28 -804 -31 -832 l-5 -53 -400 0 -399 0 0
1103 c0 1079 0 1105 20 1162 48 140 145 237 289 290 62 23 200 19 274 -8z
m553 -2751 c-8 -73 -14 -84 -47 -101 -42 -22 -2296 -22 -2338 0 -33 17 -39 28
-47 101 l-7 54 1223 0 1223 0 -7 -54z"/>
</g>
</svg>
