<?xml version="1.0" standalone="no"?>
<!DOCTYPE svg PUBLIC "-//W3C//DTD SVG 20010904//EN"
 "http://www.w3.org/TR/2001/REC-SVG-20010904/DTD/svg10.dtd">
<svg version="1.0" xmlns="http://www.w3.org/2000/svg"
 width="512.000000pt" height="512.000000pt" viewBox="0 0 512.000000 512.000000"
 preserveAspectRatio="xMidYMid meet">

<g transform="translate(0.000000,512.000000) scale(0.100000,-0.100000)"
fill="#000000" stroke="none">
<path d="M880 5098 c-34 -17 -51 -35 -68 -70 l-24 -47 216 -2430 c154 -1738
219 -2439 230 -2458 18 -36 54 -69 89 -82 40 -15 2434 -15 2474 0 35 13 71 46
89 82 11 19 76 720 230 2458 l216 2430 -24 47 c-17 35 -34 53 -68 70 l-44 22
-1636 0 -1636 0 -44 -22z m3078 -715 c-20 -230 -37 -433 -38 -450 l0 -33 -667
0 c-750 0 -720 3 -756 -72 -24 -48 -15 -97 25 -135 l29 -28 670 -3 669 -2 -1
-43 c0 -23 -8 -125 -17 -227 l-17 -185 -55 -6 c-193 -21 -335 -124 -391 -285
-16 -44 -41 -303 -129 -1311 -61 -691 -110 -1262 -110 -1270 0 -10 -23 -13
-100 -13 l-100 0 0 128 c0 70 7 532 15 1027 19 1151 19 1388 2 1440 -43 134
-151 240 -286 282 -74 22 -208 22 -282 0 -135 -42 -243 -148 -286 -282 -17
-52 -17 -289 2 -1440 8 -495 15 -957 15 -1027 l0 -128 -100 0 c-77 0 -100 3
-100 13 0 8 -49 579 -110 1270 -88 1008 -113 1267 -129 1311 -56 161 -198 264
-391 285 l-55 6 -67 755 c-36 415 -68 774 -70 798 l-3 42 1435 0 1436 0 -38
-417z m-1292 -1431 c47 -24 69 -47 88 -93 13 -30 12 -182 -5 -1234 -10 -660
-19 -1224 -19 -1252 l0 -53 -170 0 -170 0 0 53 c0 28 -9 592 -20 1252 l-19
1200 22 44 c12 25 34 53 48 63 69 51 169 59 245 20z m-1281 -11 c55 -26 92
-68 105 -121 9 -38 220 -2409 220 -2477 0 -22 -2 -23 -94 -23 l-95 0 -6 53
c-9 80 -225 2539 -225 2565 0 28 38 30 95 3z m2445 -3 c0 -26 -216 -2485 -225
-2566 l-6 -52 -95 0 c-92 0 -94 1 -94 23 0 68 211 2439 220 2477 13 53 50 95
105 121 57 27 95 25 95 -3z"/>
<path d="M1703 3893 c-13 -2 -36 -18 -53 -34 -25 -26 -30 -38 -30 -79 0 -39 5
-54 28 -78 16 -17 44 -33 63 -37 19 -3 120 -5 226 -3 l192 3 29 28 c40 38 49
87 25 135 -32 65 -61 72 -273 71 -102 -1 -195 -4 -207 -6z"/>
</g>
</svg>
