<?xml version="1.0" standalone="no"?>
<!DOCTYPE svg PUBLIC "-//W3C//DTD SVG 20010904//EN"
 "http://www.w3.org/TR/2001/REC-SVG-20010904/DTD/svg10.dtd">
<svg version="1.0" xmlns="http://www.w3.org/2000/svg"
 width="512.000000pt" height="512.000000pt" viewBox="0 0 512.000000 512.000000"
 preserveAspectRatio="xMidYMid meet">

<g transform="translate(0.000000,512.000000) scale(0.100000,-0.100000)"
fill="#000000" stroke="none">
<path d="M2405 5019 c-554 -57 -1059 -294 -1446 -679 -204 -203 -343 -396
-465 -645 -158 -325 -229 -615 -241 -985 -9 -294 28 -545 123 -830 79 -237
239 -532 388 -715 52 -64 52 -58 4 -164 -99 -222 -288 -445 -531 -629 -124
-94 -132 -104 -132 -163 0 -42 5 -53 33 -81 l33 -33 227 1 c539 2 909 86 1241
281 l95 56 120 -42 c283 -96 465 -126 781 -126 254 0 370 14 576 65 680 171
1253 633 1559 1255 85 173 132 300 175 470 55 218 69 342 69 590 0 248 -14
372 -69 590 -233 924 -1017 1631 -1965 1770 -136 20 -447 28 -575 14z m555
-254 c450 -70 870 -284 1191 -608 326 -327 531 -733 606 -1198 24 -148 24
-475 0 -628 -165 -1057 -1062 -1831 -2121 -1831 -276 0 -527 48 -794 152 -123
48 -145 47 -229 -10 -254 -173 -569 -272 -938 -298 l-100 -7 79 84 c171 181
313 407 386 614 38 109 34 133 -36 215 -486 567 -641 1362 -404 2072 212 636
721 1145 1358 1357 128 43 320 85 452 100 117 13 423 5 550 -14z"/>
<path d="M2440 4020 c-102 -27 -242 -98 -321 -164 -173 -144 -289 -385 -289
-601 0 -115 128 -175 204 -96 23 24 29 42 37 106 25 223 119 372 301 473 105
59 278 79 402 47 284 -74 470 -366 412 -645 -38 -183 -144 -318 -326 -415
-165 -88 -280 -225 -325 -390 -21 -78 -32 -392 -16 -452 25 -91 126 -124 193
-64 l33 29 6 199 c7 221 16 265 75 346 39 53 78 83 194 147 191 103 333 287
391 505 30 111 30 288 1 398 -76 280 -305 506 -586 577 -106 27 -281 27 -386
0z"/>
<path d="M2570 1514 c-73 -32 -111 -88 -112 -165 -1 -155 183 -237 295 -131
41 38 57 74 57 126 0 81 -33 134 -105 167 -48 22 -88 23 -135 3z"/>
</g>
</svg>
