<?xml version="1.0" standalone="no"?>
<!DOCTYPE svg PUBLIC "-//W3C//DTD SVG 20010904//EN"
 "http://www.w3.org/TR/2001/REC-SVG-20010904/DTD/svg10.dtd">
<svg version="1.0" xmlns="http://www.w3.org/2000/svg"
 width="981.000000pt" height="980.000000pt" viewBox="0 0 981.000000 980.000000"
 preserveAspectRatio="xMidYMid meet">

<g transform="translate(0.000000,980.000000) scale(0.100000,-0.100000)"
fill="#000000" stroke="none">
<path d="M4472 9784 c-166 -44 -313 -177 -409 -369 -44 -87 -55 -125 -173
-590 l-107 -420 -149 -56 c-162 -61 -334 -136 -401 -175 l-43 -25 -387 248
c-256 163 -416 259 -470 281 -151 61 -303 77 -451 46 -165 -34 -236 -87 -567
-426 -116 -118 -214 -227 -232 -259 -18 -30 -43 -93 -54 -139 -39 -154 -9
-351 80 -528 21 -42 143 -250 269 -461 l231 -384 -29 -56 c-41 -82 -133 -305
-160 -386 -12 -38 -25 -73 -29 -77 -3 -4 -198 -50 -433 -102 -234 -52 -457
-107 -495 -122 -147 -58 -313 -195 -383 -317 -16 -29 -40 -81 -52 -117 -22
-63 -23 -75 -23 -470 0 -464 0 -467 88 -597 76 -114 209 -215 358 -273 43 -16
275 -79 515 -140 240 -60 438 -110 439 -112 2 -2 28 -69 59 -149 31 -81 76
-190 101 -243 l44 -96 -236 -392 c-130 -216 -253 -430 -275 -475 -75 -159
-104 -344 -75 -480 31 -144 44 -161 356 -475 267 -268 291 -289 361 -323 108
-51 202 -68 330 -62 108 6 229 36 315 80 22 11 212 129 422 264 l383 243 87
-44 c116 -57 262 -120 398 -168 60 -22 111 -41 113 -43 2 -2 55 -206 117 -454
97 -388 119 -464 158 -544 106 -217 263 -352 451 -388 82 -15 729 -11 808 6
198 41 388 211 483 431 22 50 61 206 130 517 l99 445 80 27 c94 33 332 132
416 175 l59 30 378 -241 c397 -253 438 -276 561 -311 102 -29 297 -31 386 -4
140 42 162 59 467 365 313 313 324 328 356 474 30 143 -3 340 -86 505 -21 42
-138 242 -258 443 l-220 366 30 59 c42 82 139 315 166 396 21 63 25 68 59 77
20 6 219 55 441 111 222 55 438 114 481 130 163 64 321 193 389 321 58 107 61
137 61 544 0 415 -4 447 -67 569 -56 106 -190 237 -308 297 -121 63 -130 65
-600 169 -225 50 -413 94 -416 98 -3 4 -18 43 -33 87 -37 105 -118 299 -166
395 l-39 77 243 405 c261 436 293 501 322 672 24 136 8 256 -49 371 -24 49
-79 110 -306 338 -253 255 -282 281 -353 317 -110 55 -205 74 -337 67 -122 -6
-223 -32 -319 -82 -37 -18 -229 -137 -427 -263 l-359 -230 -86 43 c-107 53
-253 116 -367 156 -48 18 -93 37 -99 43 -7 6 -51 189 -98 406 -48 217 -96 426
-107 465 -74 250 -277 457 -501 510 -89 21 -778 21 -856 -1z m799 -511 c77
-70 80 -79 215 -684 69 -310 128 -567 132 -571 4 -3 68 -25 142 -48 238 -75
370 -129 616 -252 l242 -120 482 308 c265 169 506 316 534 326 36 14 67 19
109 16 l58 -4 230 -230 c212 -212 229 -231 229 -264 -1 -78 -49 -171 -344
-663 l-299 -498 106 -217 c135 -276 145 -302 232 -567 l72 -220 564 -125 c605
-134 621 -139 688 -215 l31 -36 0 -325 0 -325 -27 -26 c-61 -57 -158 -88 -720
-228 l-552 -137 -62 -187 c-77 -231 -138 -377 -250 -597 l-86 -170 300 -500
c174 -290 310 -526 323 -564 44 -123 55 -105 -209 -368 l-233 -232 -61 0 c-33
0 -79 6 -101 14 -23 8 -256 152 -519 319 -263 167 -483 307 -489 310 -6 4
-103 -40 -215 -97 -225 -115 -406 -190 -637 -263 -95 -30 -154 -54 -157 -63
-2 -8 -59 -262 -125 -565 -130 -589 -138 -614 -212 -681 l-38 -34 -330 0 -330
0 -30 42 c-17 23 -40 63 -51 88 -11 25 -79 279 -150 565 -71 286 -134 537
-140 557 l-10 37 -177 57 c-259 82 -330 112 -607 251 l-251 125 -496 -316
c-273 -174 -515 -323 -538 -331 -24 -8 -70 -15 -103 -15 l-61 0 -234 232 -233
233 6 48 c3 27 15 73 26 103 12 30 159 285 328 567 l307 512 -78 160 c-109
224 -165 361 -237 576 l-62 187 -559 140 c-565 141 -653 169 -713 225 l-27 26
0 318 c0 365 -2 355 93 418 51 34 84 42 624 162 l570 126 57 181 c79 246 111
326 231 574 l104 212 -309 515 c-169 283 -317 538 -328 568 -11 29 -23 74 -27
101 l-7 47 218 221 c121 121 233 226 251 234 42 18 87 18 150 -1 33 -10 223
-125 539 -326 269 -172 496 -314 505 -316 8 -2 103 41 210 96 259 133 324 161
594 251 l230 77 145 574 c80 316 155 593 167 615 12 23 34 55 48 73 l27 31
324 0 324 0 41 -37z"/>
<path d="M4705 6853 c-593 -73 -1068 -353 -1412 -831 -80 -111 -213 -377 -257
-512 -204 -633 -76 -1323 341 -1840 82 -101 250 -263 350 -337 596 -442 1380
-516 2038 -193 973 478 1378 1646 906 2614 -290 595 -857 1004 -1510 1092 -95
12 -378 17 -456 7z m411 -494 c745 -103 1303 -770 1271 -1519 -9 -212 -56
-399 -147 -585 -203 -417 -572 -704 -1037 -807 -142 -31 -445 -31 -586 0 -131
29 -259 73 -359 123 -415 207 -699 572 -801 1027 -18 82 -21 129 -22 297 0
174 3 214 23 305 61 272 187 510 375 706 105 110 181 173 301 248 152 95 381
179 561 205 88 13 331 13 421 0z"/>
</g>
</svg>
