<?xml version="1.0" standalone="no"?>
<!DOCTYPE svg PUBLIC "-//W3C//DTD SVG 20010904//EN"
 "http://www.w3.org/TR/2001/REC-SVG-20010904/DTD/svg10.dtd">
<svg version="1.0" xmlns="http://www.w3.org/2000/svg"
 width="512.000000pt" height="512.000000pt" viewBox="0 0 512.000000 512.000000"
 preserveAspectRatio="xMidYMid meet">

<g transform="translate(0.000000,512.000000) scale(0.100000,-0.100000)"
fill="#000000" stroke="none">
<path d="M2130 5098 c-82 -43 -99 -89 -100 -280 0 -152 12 -206 56 -252 31
-32 34 -40 34 -93 -1 -97 -21 -127 -238 -348 -109 -110 -210 -221 -225 -248
-64 -109 -61 -59 -64 -997 -3 -560 0 -871 7 -902 5 -27 21 -66 35 -88 l25 -39
-24 -36 c-54 -78 -53 -202 0 -280 l24 -36 -25 -37 c-30 -47 -48 -124 -40 -177
4 -22 19 -63 35 -91 l28 -50 -24 -39 c-52 -87 -51 -197 1 -277 l25 -37 -24
-36 c-14 -19 -29 -58 -35 -86 -14 -63 -14 -214 -1 -299 28 -177 173 -327 349
-360 72 -13 1150 -13 1222 0 176 33 321 183 349 360 13 85 13 236 -1 299 -6
28 -21 67 -35 86 l-24 36 25 37 c52 80 53 190 1 277 l-24 39 28 50 c16 28 31
69 35 91 8 53 -10 130 -40 177 l-25 37 24 36 c54 78 53 202 0 280 l-24 36 25
39 c14 22 30 61 35 88 7 31 10 342 7 902 -3 938 0 888 -64 997 -15 27 -116
138 -225 248 -217 221 -237 251 -238 348 0 53 3 61 34 93 44 46 56 100 56 252
-1 191 -18 237 -100 280 -44 22 -50 22 -430 22 -380 0 -386 0 -430 -22z m790
-283 l0 -135 -360 0 -360 0 0 135 0 135 360 0 360 0 0 -135z m-84 -384 c20
-144 45 -183 282 -424 178 -181 211 -219 225 -261 15 -45 17 -131 17 -893 0
-869 0 -870 -39 -900 -23 -18 -1499 -18 -1522 0 -39 30 -39 31 -39 900 0 762
2 848 17 893 14 42 47 80 225 261 237 241 262 280 282 424 l10 79 266 0 266 0
10 -79z m474 -2676 c68 -35 68 -125 0 -160 -25 -13 -126 -15 -750 -15 -624 0
-725 2 -750 15 -67 35 -68 124 -2 159 41 23 1459 23 1502 1z m7 -354 c50 -34
56 -99 14 -142 l-29 -29 -742 0 -742 0 -29 29 c-53 54 -31 127 46 153 11 3
344 6 740 5 609 -2 723 -4 742 -16z m14 -370 c55 -55 26 -139 -52 -155 -41 -8
-1397 -8 -1438 0 -78 16 -107 100 -52 155 l29 29 742 0 742 0 29 -29z m-33
-332 c53 -18 62 -44 62 -182 0 -144 -13 -194 -67 -257 -21 -24 -60 -53 -87
-66 l-51 -24 -595 0 -595 0 -51 24 c-27 13 -66 42 -87 66 -54 64 -67 113 -67
259 0 137 8 160 60 180 36 14 1437 14 1478 0z"/>
<path d="M2534 3520 c-32 -13 -71 -65 -169 -226 -171 -284 -239 -446 -238
-566 1 -73 22 -150 60 -214 34 -60 124 -141 188 -170 164 -75 351 -45 480 77
91 86 136 187 138 307 1 120 -67 281 -239 567 -122 203 -165 247 -220 225z
m98 -343 c125 -211 198 -375 198 -445 0 -95 -62 -191 -152 -236 -141 -71 -322
3 -372 152 -30 88 -16 154 69 324 51 101 177 317 185 318 3 0 35 -51 72 -113z"/>
</g>
</svg>
