<?xml version="1.0" standalone="no"?>
<!DOCTYPE svg PUBLIC "-//W3C//DTD SVG 20010904//EN"
 "http://www.w3.org/TR/2001/REC-SVG-20010904/DTD/svg10.dtd">
<svg version="1.0" xmlns="http://www.w3.org/2000/svg"
 width="539.000000pt" height="428.000000pt" viewBox="0 0 539.000000 428.000000"
 preserveAspectRatio="xMidYMid meet">

<g transform="translate(0.000000,428.000000) scale(0.100000,-0.100000)"
fill="#000000" stroke="none">
<path d="M2369 3331 l-29 -29 0 -700 c0 -384 -2 -701 -5 -704 -3 -3 -78 12
-167 33 -89 21 -172 36 -185 33 -31 -8 -73 -60 -73 -90 0 -14 5 -34 11 -45 14
-27 565 -698 596 -726 33 -31 93 -31 126 0 24 22 501 599 571 691 22 29 36 59
36 76 0 34 -40 85 -73 94 -13 3 -96 -12 -185 -33 -89 -21 -164 -36 -167 -33
-3 3 -5 320 -5 704 l0 700 -29 29 -29 29 -182 0 -182 0 -29 -29z m387 -25 c18
-14 19 -36 24 -726 5 -756 3 -729 50 -730 8 0 86 16 173 37 174 41 192 39 192
-15 0 -24 -51 -92 -289 -381 -159 -194 -297 -356 -307 -362 -13 -6 -25 -6 -38
0 -10 6 -148 168 -307 362 -305 370 -322 397 -271 420 20 9 53 4 175 -25 83
-20 159 -36 169 -36 50 1 48 -32 53 730 5 690 6 712 24 726 15 11 57 14 176
14 119 0 161 -3 176 -14z"/>
</g>
</svg>
