<?xml version="1.0" standalone="no"?>
<!DOCTYPE svg PUBLIC "-//W3C//DTD SVG 20010904//EN"
 "http://www.w3.org/TR/2001/REC-SVG-20010904/DTD/svg10.dtd">
<svg version="1.0" xmlns="http://www.w3.org/2000/svg"
 width="512.000000pt" height="512.000000pt" viewBox="0 0 512.000000 512.000000"
 preserveAspectRatio="xMidYMid meet">

<g transform="translate(0.000000,512.000000) scale(0.100000,-0.100000)"
fill="#000000" stroke="none">
<path d="M1523 5020 c-70 -31 -83 -64 -83 -204 0 -112 -1 -119 -24 -137 -44
-34 -56 -78 -56 -198 0 -73 5 -123 14 -145 16 -38 67 -81 109 -91 19 -5 26
-12 23 -24 -2 -9 -7 -32 -11 -51 -25 -136 -115 -336 -206 -455 -156 -206 -283
-430 -338 -599 -60 -183 -63 -211 -68 -606 -5 -435 1 -496 77 -720 75 -222 96
-382 69 -512 -6 -29 -31 -101 -55 -160 -84 -205 -89 -232 -89 -499 l0 -235 37
-76 c45 -90 103 -148 193 -189 123 -58 263 -48 359 26 26 19 49 35 52 35 3 0
43 -18 87 -40 159 -78 295 -78 454 0 44 22 84 40 87 40 3 0 26 -16 51 -35 85
-65 64 -63 904 -64 l761 -2 25 25 c14 14 25 31 25 38 0 7 72 571 160 1253 88
682 160 1248 160 1258 0 10 -11 29 -25 42 -23 24 -28 25 -175 25 -147 0 -152
-1 -175 -25 -16 -15 -25 -36 -25 -55 0 -19 9 -40 25 -55 22 -23 32 -25 115
-25 l91 0 -6 -32 c-5 -28 -295 -2275 -295 -2285 0 -2 -256 -3 -570 -3 -313 0
-570 2 -570 4 0 11 -290 2255 -295 2284 l-6 32 651 0 651 0 24 25 c33 32 33
78 0 110 l-24 25 -416 0 -415 0 0 56 c0 182 -66 421 -164 592 -55 97 -92 149
-255 361 -85 110 -163 286 -196 441 -14 67 -10 79 24 80 24 0 77 47 95 83 12
26 16 64 16 147 0 121 -12 165 -56 199 -23 18 -24 25 -24 137 0 140 -13 173
-83 204 -38 18 -67 20 -317 20 -250 0 -279 -2 -317 -20z m637 -540 l0 -80
-320 0 -320 0 0 80 0 80 320 0 320 0 0 -80z m-136 -321 c9 -44 28 -114 42
-155 13 -41 24 -77 24 -79 0 -3 -112 -5 -250 -5 -137 0 -250 2 -250 4 0 2 13
44 29 93 15 48 34 118 41 156 l12 67 167 0 168 0 17 -81z"/>
<path d="M2585 2375 c-14 -13 -25 -33 -25 -44 0 -11 38 -313 85 -673 83 -641
85 -653 110 -675 15 -13 34 -23 44 -23 15 0 21 -13 30 -77 9 -61 9 -79 -1 -82
-6 -2 -23 -15 -36 -28 -23 -23 -24 -30 -18 -86 20 -196 29 -241 52 -264 l23
-23 351 0 351 0 24 25 c14 13 25 29 25 36 0 6 54 425 120 931 66 505 120 928
120 939 0 11 -11 31 -25 44 l-24 25 -591 0 -591 0 -24 -25z m535 -215 l0 -80
-80 0 -80 0 0 80 0 80 80 0 80 0 0 -80z m135 -590 l50 -50 -53 -53 -52 -52
-52 52 -53 53 50 50 c27 27 52 50 55 50 3 0 28 -23 55 -50z"/>
</g>
</svg>
