<?xml version="1.0" standalone="no"?>
<!DOCTYPE svg PUBLIC "-//W3C//DTD SVG 20010904//EN"
 "http://www.w3.org/TR/2001/REC-SVG-20010904/DTD/svg10.dtd">
<svg version="1.0" xmlns="http://www.w3.org/2000/svg"
 width="512.000000pt" height="512.000000pt" viewBox="0 0 512.000000 512.000000"
 preserveAspectRatio="xMidYMid meet">

<g transform="translate(0.000000,512.000000) scale(0.100000,-0.100000)"
fill="#000000" stroke="none">
<path d="M1555 4948 c-11 -6 -23 -16 -27 -22 -4 -6 -8 -73 -8 -148 l0 -138
320 0 320 0 0 138 c0 75 -4 142 -8 148 -20 30 -55 34 -314 34 -177 -1 -270 -4
-283 -12z"/>
<path d="M1438 3792 c-15 -27 -66 -101 -112 -165 -184 -251 -290 -465 -342
-692 -12 -50 -18 -142 -21 -325 l-5 -255 304 303 303 302 115 0 115 0 -417
-417 -416 -418 8 -55 c13 -90 29 -148 76 -285 50 -146 74 -271 74 -392 0 -111
-13 -165 -76 -319 -72 -177 -87 -266 -82 -494 3 -164 5 -178 29 -230 91 -191
334 -249 470 -112 25 26 48 53 51 61 3 11 16 3 44 -25 65 -65 187 -114 284
-114 97 0 219 49 284 114 26 26 41 35 44 26 9 -26 77 -92 116 -112 57 -29 141
-34 210 -13 38 12 56 23 56 34 0 16 -186 1457 -270 2091 -22 168 -40 313 -40
323 0 16 18 17 241 17 l242 0 -6 143 c-13 306 -95 508 -334 813 -55 71 -115
155 -133 187 l-32 57 -376 0 -377 0 -27 -48z m517 -1072 c-220 -220 -243 -240
-274 -240 -48 0 -81 33 -81 79 0 33 14 50 182 218 l183 183 115 0 115 0 -240
-240z m-378 -262 c16 -15 23 -33 23 -57 0 -30 -9 -45 -62 -98 -53 -53 -68 -63
-97 -63 -48 0 -81 33 -81 79 0 30 9 45 62 98 53 53 68 63 97 63 22 0 43 -8 58
-22z"/>
<path d="M2644 2293 c5 -26 236 -1793 236 -1807 0 -3 144 -6 320 -6 230 0 320
3 320 11 0 6 9 73 20 148 11 75 62 467 115 871 52 404 98 752 101 773 l6 37
-281 0 -281 0 0 -160 0 -160 -160 0 -160 0 0 160 0 160 -121 0 -121 0 6 -27z
m671 -663 l110 -110 -113 -113 -112 -112 -112 112 -113 113 110 110 c60 60
112 110 115 110 3 0 55 -50 115 -110z"/>
</g>
</svg>
