<?xml version="1.0" standalone="no"?>
<!DOCTYPE svg PUBLIC "-//W3C//DTD SVG 20010904//EN"
 "http://www.w3.org/TR/2001/REC-SVG-20010904/DTD/svg10.dtd">
<svg version="1.0" xmlns="http://www.w3.org/2000/svg"
 width="512.000000pt" height="512.000000pt" viewBox="0 0 512.000000 512.000000"
 preserveAspectRatio="xMidYMid meet">

<g transform="translate(0.000000,512.000000) scale(0.100000,-0.100000)"
fill="#000000" stroke="none">
<path d="M2090 5114 c-862 -34 -1345 -98 -1431 -190 l-23 -24 243 -2328 c133
-1280 245 -2345 249 -2367 13 -68 79 -99 287 -135 553 -95 1856 -90 2346 10
111 23 188 51 213 79 13 14 66 497 263 2379 l247 2362 -23 24 c-75 80 -414
133 -1111 176 -170 11 -1090 21 -1260 14z m1315 -93 c352 -24 664 -57 810 -87
102 -21 176 -45 172 -57 -12 -37 -309 -89 -687 -121 -619 -53 -1599 -55 -2225
-5 -392 31 -730 88 -742 126 -2 5 20 17 49 26 196 61 619 105 1243 131 167 7
1227 -3 1380 -13z m-2437 -290 c376 -63 870 -91 1592 -91 841 0 1444 43 1762
126 33 8 63 13 65 10 3 -3 -101 -1024 -231 -2268 -130 -1245 -236 -2271 -236
-2281 0 -48 -267 -99 -685 -129 -236 -17 -1140 -17 -1365 0 -429 33 -670 80
-670 131 0 11 -106 1031 -235 2267 -129 1236 -235 2258 -235 2270 l0 22 60
-19 c33 -10 113 -27 178 -38z"/>
</g>
</svg>
