<?xml version="1.0" standalone="no"?>
<!DOCTYPE svg PUBLIC "-//W3C//DTD SVG 20010904//EN"
 "http://www.w3.org/TR/2001/REC-SVG-20010904/DTD/svg10.dtd">
<svg version="1.0" xmlns="http://www.w3.org/2000/svg"
 width="512.000000pt" height="512.000000pt" viewBox="0 0 512.000000 512.000000"
 preserveAspectRatio="xMidYMid meet">

<g transform="translate(0.000000,512.000000) scale(0.100000,-0.100000)"
fill="#000000" stroke="none">
<path d="M2105 4935 l-25 -24 0 -230 0 -231 -40 -20 -40 -20 -70 35 c-38 19
-79 35 -90 35 -11 0 -52 -16 -90 -35 l-70 -35 -70 35 c-38 19 -79 35 -90 35
-11 0 -52 -16 -90 -35 l-70 -35 -70 35 c-38 19 -79 35 -90 35 -11 0 -52 -16
-90 -35 l-70 -35 -70 35 c-38 19 -79 35 -90 35 -11 0 -52 -16 -90 -35 l-70
-35 -70 35 c-38 19 -79 35 -90 35 -11 0 -52 -16 -90 -35 l-70 -35 -70 35 c-82
41 -112 44 -145 10 l-25 -24 0 -221 0 -221 40 -159 40 -159 0 -1110 0 -1109
-40 -167 -40 -167 0 -214 c0 -215 0 -215 25 -239 33 -34 63 -31 145 10 l70 35
70 -35 c38 -19 79 -35 90 -35 11 0 52 16 90 35 l70 35 70 -35 c38 -19 79 -35
90 -35 11 0 52 16 90 35 l69 35 80 -38 80 -37 1 -213 c0 -212 0 -213 25 -237
13 -14 35 -25 47 -25 13 0 113 36 223 80 l199 80 743 0 743 0 160 -80 c88 -44
171 -80 185 -80 14 0 37 11 50 25 l25 24 0 331 0 330 70 -35 c38 -19 79 -35
90 -35 11 0 52 16 90 35 l70 35 70 -35 c38 -19 79 -35 90 -35 11 0 52 16 90
35 l70 35 70 -35 c38 -19 79 -35 90 -35 11 0 52 16 90 35 l70 35 70 -35 c82
-41 112 -44 145 -10 l25 24 0 259 c0 249 -2 270 -40 537 l-40 278 27 306 c38
435 38 894 0 1360 l-26 324 39 243 c39 238 40 249 40 499 l0 256 -25 24 c-33
34 -63 31 -145 -10 l-70 -35 -70 35 c-38 19 -79 35 -90 35 -11 0 -52 -16 -90
-35 l-70 -35 -70 35 c-38 19 -79 35 -90 35 -11 0 -52 -16 -90 -35 l-70 -35
-70 35 c-38 19 -79 35 -90 35 -11 0 -52 -16 -90 -35 l-70 -35 -70 35 c-38 19
-79 35 -90 35 -11 0 -52 -16 -90 -35 l-70 -35 -70 35 c-38 19 -79 35 -90 35
-11 0 -52 -16 -90 -35 l-70 -35 -70 35 c-38 19 -79 35 -90 35 -11 0 -52 -16
-90 -35 l-70 -35 -70 35 c-38 19 -79 35 -90 35 -11 0 -52 -16 -90 -35 l-70
-35 -70 35 c-82 41 -112 44 -145 10z m445 -180 c38 -19 79 -35 90 -35 11 0 52
16 90 35 l70 35 70 -35 c38 -19 79 -35 90 -35 11 0 52 16 90 35 l70 35 70 -35
c38 -19 79 -35 90 -35 11 0 52 16 90 35 l70 35 70 -35 c38 -19 79 -35 90 -35
11 0 52 16 90 35 l70 35 70 -35 c38 -19 79 -35 90 -35 11 0 52 16 90 35 l70
35 70 -35 c38 -19 79 -35 90 -35 11 0 52 16 90 35 l70 35 70 -35 c78 -39 98
-42 140 -20 l30 16 0 -136 0 -135 -80 0 -80 0 0 80 0 80 -80 0 -80 0 0 -80 0
-80 -80 0 -80 0 0 80 0 80 -80 0 -80 0 0 -80 0 -80 -80 0 -80 0 0 80 0 80 -80
0 -80 0 0 -80 0 -80 -80 0 -80 0 0 80 0 80 -80 0 -80 0 0 -80 0 -80 -80 0 -80
0 0 80 0 80 -80 0 -80 0 0 -80 0 -80 -80 0 -80 0 0 80 0 80 -80 0 -80 0 0 -80
0 -80 -80 0 -80 0 0 80 0 80 -80 0 -80 0 0 -80 0 -80 -80 0 -80 0 0 135 0 136
30 -16 c42 -22 67 -18 140 20 36 19 66 34 68 35 1 0 34 -16 72 -35z m2070
-452 c0 -10 -14 -101 -30 -203 l-30 -185 27 -330 c38 -467 38 -914 0 -1363
l-27 -312 30 -208 c16 -114 32 -219 34 -234 l5 -28 -514 0 -515 0 0 135 c0
131 -1 137 -25 160 -13 14 -36 25 -50 25 -14 0 -97 -36 -185 -80 l-160 -80
-190 0 -190 0 0 281 0 281 28 -21 c209 -161 426 -232 667 -217 244 14 451 108
625 285 95 96 163 198 209 312 52 130 65 199 65 359 0 160 -12 226 -65 359
-89 224 -288 428 -510 522 -314 134 -683 90 -951 -112 l-63 -47 -3 32 c-2 18
15 105 37 194 40 156 41 166 41 327 l0 165 870 0 c822 0 870 -1 870 -17z
m-3990 -28 c38 -19 79 -35 90 -35 11 0 52 16 90 35 l70 35 70 -35 c38 -19 79
-35 90 -35 11 0 52 16 90 35 l70 35 70 -35 c38 -19 79 -35 90 -35 11 0 52 16
90 35 l70 35 70 -35 c38 -19 79 -35 90 -35 11 0 52 16 90 35 l70 35 70 -35
c38 -19 79 -35 90 -35 11 0 52 16 90 35 l70 35 70 -35 c38 -19 79 -35 90 -35
11 0 52 16 90 35 l70 35 70 -35 c78 -39 98 -42 140 -20 l30 16 0 -96 0 -95
-1200 0 -1200 0 0 95 0 96 30 -16 c42 -22 67 -18 140 20 36 19 66 34 68 35 1
0 34 -16 72 -35z m2039 -472 l-29 -118 0 -1042 0 -1043 -473 0 -473 0 -199 80
c-110 44 -210 80 -223 80 -12 0 -34 -11 -47 -25 l-25 -24 0 -256 0 -255 -429
0 -429 0 29 112 29 113 0 1130 0 1130 -29 118 -28 117 1177 0 1177 0 -28 -117z
m913 -137 c352 -68 605 -338 650 -692 30 -234 -54 -480 -222 -652 -312 -320
-821 -320 -1139 0 l-71 71 1 211 c1 204 1 209 15 152 33 -138 127 -254 253
-315 71 -34 82 -36 171 -36 66 1 106 6 133 17 34 16 41 16 80 2 23 -9 74 -18
112 -21 229 -18 441 136 500 364 23 87 20 139 -10 168 -24 25 -26 25 -204 25
l-179 0 -7 41 c-11 66 -71 173 -129 231 -131 131 -311 163 -473 83 -124 -61
-214 -175 -247 -311 -14 -57 -14 -52 -15 152 l-1 211 71 71 c189 191 458 277
711 228z m-260 -482 c79 -27 155 -110 183 -201 l6 -23 -171 0 c-171 0 -171 0
-197 -26 -24 -24 -25 -30 -20 -92 7 -80 36 -164 82 -232 38 -57 32 -61 -47
-34 -67 22 -122 75 -160 152 -30 60 -33 76 -33 152 0 76 3 92 33 152 67 137
194 197 324 152z m588 -389 c0 -14 -51 -105 -74 -132 -14 -16 -53 -45 -88 -64
-57 -30 -71 -33 -148 -34 -78 0 -90 3 -148 34 -35 19 -74 48 -88 64 -23 27
-74 118 -74 132 0 3 140 5 310 5 171 0 310 -2 310 -5z m-2395 -1295 l149 -60
778 0 778 0 110 55 110 55 0 -95 0 -95 -80 0 -80 0 0 -80 0 -80 80 0 80 0 0
-80 0 -80 -80 0 -80 0 0 -80 0 -80 80 0 80 0 0 -80 0 -80 -80 0 -80 0 0 -80 0
-80 80 0 80 0 0 -95 0 -95 -110 55 -110 55 -778 0 -778 0 -149 -60 c-82 -33
-150 -60 -152 -60 -2 0 -3 45 -3 100 l0 100 80 0 80 0 0 80 0 80 -80 0 -80 0
0 80 0 80 80 0 80 0 0 80 0 80 -80 0 -80 0 0 80 0 80 80 0 80 0 0 80 0 80 -80
0 -80 0 0 100 c0 55 1 100 3 100 2 0 70 -27 152 -60z m2165 -300 l0 -80 80 0
80 0 0 80 0 80 80 0 80 0 0 -80 0 -80 80 0 80 0 0 80 0 80 80 0 80 0 0 -80 0
-80 80 0 80 0 0 80 0 80 80 0 80 0 0 -135 0 -136 -30 16 c-42 22 -62 19 -140
-20 l-70 -35 -70 35 c-38 19 -79 35 -90 35 -11 0 -52 -16 -90 -35 l-70 -35
-70 35 c-38 19 -79 35 -90 35 -11 0 -52 -16 -90 -35 l-69 -35 -80 38 -80 37
-1 118 0 117 40 0 40 0 0 -80z m-2480 -275 l0 -115 -70 35 c-38 19 -79 35 -90
35 -11 0 -52 -16 -90 -35 l-70 -35 -70 35 c-38 19 -79 35 -90 35 -11 0 -52
-16 -90 -35 l-70 -35 -70 35 c-78 39 -98 42 -140 20 l-30 -16 0 96 0 95 440 0
440 0 0 -115z"/>
<path d="M1375 3346 c-134 -32 -243 -87 -332 -170 l-58 -53 -85 -5 c-144 -7
-246 -73 -307 -196 l-28 -57 -3 -408 -3 -407 25 -25 c37 -37 76 -33 131 15 64
55 126 97 187 125 l52 24 72 -68 c126 -120 277 -187 448 -198 221 -14 423 69
581 239 67 72 72 75 124 81 112 13 216 88 268 195 l28 57 3 367 3 368 -25 25
c-33 33 -69 32 -125 -4 -66 -42 -167 -88 -231 -104 l-55 -14 -53 48 c-68 62
-162 115 -260 146 -97 31 -267 40 -357 19z m316 -174 c143 -50 140 -51 -171
-51 l-285 1 55 26 c30 14 80 32 110 39 75 17 220 10 291 -15z m619 -643 c-14
-51 -47 -88 -94 -110 -38 -17 -76 -19 -547 -19 -549 0 -605 -4 -751 -56 -40
-14 -101 -41 -135 -60 l-63 -35 0 281 c0 294 4 325 48 373 48 53 32 52 682 58
584 5 608 6 682 27 43 12 101 33 130 45 l53 23 3 -245 c2 -151 -1 -260 -8
-282z m-441 -325 c-97 -81 -208 -119 -349 -119 -110 0 -166 13 -261 61 -51 25
-109 71 -109 85 0 5 158 9 381 9 l381 0 -43 -36z"/>
<path d="M2306 1350 c-63 -16 -153 -70 -197 -117 -22 -24 -55 -74 -72 -111
-29 -61 -32 -76 -32 -163 0 -90 2 -99 37 -171 45 -91 103 -147 196 -191 61
-29 76 -32 162 -32 86 0 101 3 162 32 93 44 151 100 196 191 35 72 37 81 37
172 0 91 -2 100 -37 172 -68 136 -188 217 -336 224 -42 2 -94 -1 -116 -6z
m168 -162 c86 -26 166 -136 166 -228 0 -124 -116 -240 -240 -240 -92 0 -202
80 -228 166 -28 94 -8 169 63 239 70 71 145 90 239 63z"/>
</g>
</svg>
